. 
 
http://www.torrenting.com          :     Once & For all ;)


               www . Torrenting . Com 

(((((((((((((= Enjoy No RAR releases =))))))))))))))))))))


...................................NFO:....................................

.[IMG]http://img848.imageshack.us/img848/4488/tinkertailerposter.jpg[/IMG]


[color=blue][size=5][b]Tinker.Tailor.Soldier.Spy.2011.R5.DVDRip.XVID.AC3.HQ.Hive-CM8[/b][/size][/color]


[b] Thx Hive

CM8 Doing it right the first time :D


Source: Russian DVD-9
Shpion_viidi_von_DVD9
had English Audio on it

Encode:
Dvd quality was ok, had some videonoise in it and needed some subs hardcoded.
Hardcoded the needed subs. Removed the noise in the video, added brightness,
sharpness, rgb and denoise - got very nice.
Enjoy

Video: 720x304 @bitrate 1700 2pass
Audio: English AC3 5.1 @448
Sample: Yes, included
Subs: Yes, English hardcoded for foreign parts only
Subs: Full subs file in srt /subs too[/b]
 
http://www.imdb.com/title/tt1340800/


General
Complete name                  : Tinker.Tailor.Soldier.Spy.2011.R5.DVDRip.XVID.AC3.HQ.Hive-CM8.avi
Format                         : AVI
Format/Info                    : Audio Video Interleave
File size                      : 1.79 GiB
Duration                       : 2h 2mn
Overall bit rate               : 2 093 Kbps
Writing application            : Nandub v1.0rc2
Writing library                : Nandub build 1853/release

Video
ID                             : 0
Format                         : MPEG-4 Visual
Format profile                 : Advanced Simple@L5
Format settings, BVOP          : 2
Format settings, QPel          : Yes
Format settings, GMC           : No warppoints
Format settings, Matrix        : Default (H.263)
Muxing mode                    : Packed bitstream
Codec ID                       : XVID
Codec ID/Hint                  : XviD
Duration                       : 2h 2mn
Bit rate                       : 1 700 Kbps
Width                          : 720 pixels
Height                         : 304 pixels
Display aspect ratio           : 2.35:1
Frame rate                     : 25.000 fps
Color space                    : YUV
Chroma subsampling             : 4:2:0
Bit depth                      : 8 bits
Scan type                      : Progressive
Compression mode               : Lossy
Bits/(Pixel*Frame)             : 0.311
Stream size                    : 1.45 GiB (81%)
Writing library                : XviD 1.2.1 (UTC 2008-12-04)

Audio
ID                             : 1
Format                         : AC-3
Format/Info                    : Audio Coding 3
Mode extension                 : CM (complete main)
Codec ID                       : 2000
Duration                       : 2h 2mn
Bit rate mode                  : Constant
Bit rate                       : 384 Kbps
Channel(s)                     : 6 channels
Channel positions              : Front: L C R, Side: L R, LFE
Sampling rate                  : 48.0 KHz
Bit depth                      : 16 bits
Compression mode               : Lossy
Stream size                    : 335 MiB (18%)
Alignment                      : Split accross interleaves
Interleave, duration           : 40 ms (1.00 video frame)
Interleave, preload duration   : 500 ms


Plot:
In the bleak days of the Cold War, espionage veteran George Smiley is forced
from semi-retirement to uncover a Soviet agent within MI6's echelons.


Cast:
Gary Oldman      ...    George Smiley
John Hurt        ...    Control
Toby Jones       ...    Percy Alleline
Colin Firth      ...    Bill Haydon
Tom Hardy        ...    Ricki Tarr


[img]http://img84.imageshack.us/img84/3954/11290413.png[/img]
[img]http://img197.imageshack.us/img197/641/titif.png[/img]
[img]http://img822.imageshack.us/img822/3398/tittii.png[/img]
[img]http://img249.imageshack.us/img249/5213/tittiiti.png[/img]
[img]http://img688.imageshack.us/img688/8255/tittiititi.png[/img]
[img]http://img831.imageshack.us/img831/9660/tittiittiiti.png[/img]
[img]http://img214.imageshack.us/img214/3423/tittiitttiiiti.png[/img]
[img]http://img408.imageshack.us/img408/4332/tittiitttiiittii.png[/img]



Greetz

ViSiON,SPK,SceneLovers,PRESTiGE,SANTi,3LT0N,YanKeeS,MAGNET,THC,T0XiC,LKRG,Feel-Free,FLAWL3SS,
WBZ,BHRG,SiC,26K,NOVA,D2U,SeToNeUp,Rapeseed,SAFC,goldadvance,KaN1vE,Unevano,Pinnz,Wayne
Mr Hive,and most P2P groups
Great Work Guys :D

LOOKING FOR ANYTHING YOU WANT TO LOOK AND SOUND BETTER

CM8@hushmail.com